<?xml version="1.0" encoding="utf-8"?>
<!-- Generator: Adobe Illustrator 24.1.1, SVG Export Plug-In . SVG Version: 6.00 Build 0)  -->
<svg version="1.1" id="Layer_1" xmlns="http://www.w3.org/2000/svg" xmlns:xlink="http://www.w3.org/1999/xlink" x="0px" y="0px"
	 viewBox="0 0 512 512" style="enable-background:new 0 0 512 512;" xml:space="preserve">
<g>
	<path d="M365.5,412.1l139.6-139.6c4.3-4.3,6.8-10.3,6.8-16.5c0-6.1-2.5-12.1-6.8-16.5L365.5,99.9c-9.1-9.1-23.8-9.1-32.9,0
		s-9.1,23.8,0,32.9L455.8,256L332.6,379.2c-9.1,9.1-9.1,23.8,0,32.9S356.5,421.2,365.5,412.1L365.5,412.1z"/>
	<path d="M146.5,99.9L6.8,239.5C2.5,243.9,0,249.9,0,256c0,6.1,2.5,12.1,6.8,16.5l139.6,139.6c9.1,9.1,23.8,9.1,32.9,0
		c9.1-9.1,9.1-23.8,0-32.9L56.2,256l123.2-123.2c9.1-9.1,9.1-23.8,0-32.9C170.3,90.8,155.5,90.8,146.5,99.9L146.5,99.9z"/>
</g>
</svg>
