<svg version="1.2" xmlns="http://www.w3.org/2000/svg" viewBox="0 0 810 540" width="810" height="540"><style>.a{fill:#fff}.b{fill:#bb133e}.c{fill:#002664}</style><path class="a" d="m-108 0h1026v540h-1026z"/><path class="b" d="m-108 0h1026v41.5h-1026z"/><path class="b" d="m-108 83.1h1026v41.5h-1026z"/><path class="b" d="m-108 166.2h1026v41.5h-1026z"/><path class="b" d="m-108 249.2h1026v41.6h-1026z"/><path class="b" d="m-108 332.3h1026v41.5h-1026z"/><path class="b" d="m-108 415.4h1026v41.5h-1026z"/><path class="b" d="m-108 498.5h1026v41.5h-1026z"/><path class="c" d="m-108 0h410.4v290.8h-410.4z"/><path class="a" d="m-68.5 31.9l-14.2 10.3 5.4-16.6z"/><path class="a" d="m-74.6 33.9l-14.1-10.3h17.5z"/><path class="a" d="m-78.3 28.7l5.4-16.6 5.4 16.6z"/><path class="a" d="m-74.6 23.6h17.5l-14.1 10.3z"/><path class="a" d="m-68.5 25.6l5.4 16.6-14.2-10.3z"/><path class="a" d="m-0.5 31.9l-14.1 10.3 5.4-16.6z"/><path class="a" d="m-6.5 33.9l-14.2-10.3h17.5z"/><path class="a" d="m-10.3 28.7l5.4-16.6 5.4 16.6z"/><path class="a" d="m-6.5 23.6h17.5l-14.2 10.3z"/><path class="a" d="m-0.5 25.6l5.4 16.6-14.1-10.3z"/><path class="a" d="m67.6 31.9l-14.2 10.3 5.4-16.6z"/><path class="a" d="m61.5 33.9l-14.1-10.3h17.4z"/><path class="a" d="m57.8 28.7l5.4-16.6 5.4 16.6z"/><path class="a" d="m61.5 23.6h17.5l-14.2 10.3z"/><path class="a" d="m67.6 25.6l5.4 16.6-14.2-10.3z"/><path class="a" d="m135.6 31.9l-14.2 10.3 5.4-16.6z"/><path class="a" d="m129.6 33.9l-14.2-10.3h17.5z"/><path class="a" d="m125.8 28.7l5.4-16.6 5.4 16.6z"/><path class="a" d="m129.6 23.6h17.4l-14.1 10.3z"/><path class="a" d="m135.6 25.6l5.4 16.6-14.2-10.3z"/><path class="a" d="m203.6 31.9l-14.1 10.3 5.4-16.6z"/><path class="a" d="m197.6 33.9l-14.2-10.3h17.5z"/><path class="a" d="m193.9 28.7l5.4-16.6 5.4 16.6z"/><path class="a" d="m197.6 23.6h17.5l-14.2 10.3z"/><path class="a" d="m203.6 25.6l5.4 16.6-14.1-10.3z"/><path class="a" d="m271.7 31.9l-14.2 10.3 5.4-16.6z"/><path class="a" d="m265.6 33.9l-14.1-10.3h17.5z"/><path class="a" d="m261.9 28.7l5.4-16.6 5.4 16.6z"/><path class="a" d="m265.6 23.6h17.5l-14.1 10.3z"/><path class="a" d="m271.7 25.6l5.4 16.6-14.2-10.3z"/><path class="a" d="m-34.5 61.1l-14.2 10.3 5.4-16.7z"/><path class="a" d="m-40.5 63l-14.2-10.2h17.5z"/><path class="a" d="m-44.3 57.9l5.4-16.6 5.4 16.6z"/><path class="a" d="m-40.5 52.8h17.4l-14.1 10.2z"/><path class="a" d="m-34.5 54.7l5.4 16.7-14.2-10.3z"/><path class="a" d="m33.5 61.1l-14.1 10.3 5.4-16.7z"/><path class="a" d="m27.5 63l-14.2-10.2h17.5z"/><path class="a" d="m23.8 57.9l5.4-16.6 5.4 16.6z"/><path class="a" d="m27.5 52.8h17.5l-14.2 10.2z"/><path class="a" d="m33.5 54.7l5.4 16.7-14.1-10.3z"/><path class="a" d="m101.6 61.1l-14.2 10.3 5.4-16.7z"/><path class="a" d="m95.5 63l-14.1-10.2h17.5z"/><path class="a" d="m91.8 57.9l5.4-16.6 5.4 16.6z"/><path class="a" d="m95.5 52.8h17.5l-14.1 10.2z"/><path class="a" d="m101.6 54.7l5.4 16.7-14.2-10.3z"/><path class="a" d="m169.6 61.1l-14.1 10.3 5.4-16.7z"/><path class="a" d="m163.6 63l-14.2-10.2h17.5z"/><path class="a" d="m159.8 57.9l5.4-16.6 5.4 16.6z"/><path class="a" d="m163.6 52.8h17.5l-14.2 10.2z"/><path class="a" d="m169.6 54.7l5.4 16.7-14.1-10.3z"/><path class="a" d="m237.7 61.1l-14.2 10.3 5.4-16.7z"/><path class="a" d="m231.6 63l-14.1-10.2h17.4z"/><path class="a" d="m227.9 57.9l5.4-16.6 5.4 16.6z"/><path class="a" d="m231.6 52.8h17.5l-14.2 10.2z"/><path class="a" d="m237.7 54.7l5.4 16.7-14.2-10.3z"/><path class="a" d="m-68.5 90.2l-14.2 10.3 5.4-16.6z"/><path class="a" d="m-74.6 92.2l-14.1-10.3h17.5z"/><path class="a" d="m-78.3 87.1l5.4-16.7 5.4 16.7z"/><path class="a" d="m-74.6 81.9h17.5l-14.1 10.3z"/><path class="a" d="m-68.5 83.9l5.4 16.6-14.2-10.3z"/><path class="a" d="m-0.5 90.2l-14.1 10.3 5.4-16.6z"/><path class="a" d="m-6.5 92.2l-14.2-10.3h17.5z"/><path class="a" d="m-10.3 87.1l5.4-16.7 5.4 16.7z"/><path class="a" d="m-6.5 81.9h17.5l-14.2 10.3z"/><path class="a" d="m-0.5 83.9l5.4 16.6-14.1-10.3z"/><path class="a" d="m67.6 90.2l-14.2 10.3 5.4-16.6z"/><path class="a" d="m61.5 92.2l-14.1-10.3h17.4z"/><path class="a" d="m57.8 87.1l5.4-16.7 5.4 16.7z"/><path class="a" d="m61.5 81.9h17.5l-14.2 10.3z"/><path class="a" d="m67.6 83.9l5.4 16.6-14.2-10.3z"/><path class="a" d="m135.6 90.2l-14.2 10.3 5.4-16.6z"/><path class="a" d="m129.6 92.2l-14.2-10.3h17.5z"/><path class="a" d="m125.8 87.1l5.4-16.7 5.4 16.7z"/><path class="a" d="m129.6 81.9h17.4l-14.1 10.3z"/><path class="a" d="m135.6 83.9l5.4 16.6-14.2-10.3z"/><path class="a" d="m203.6 90.2l-14.1 10.3 5.4-16.6z"/><path class="a" d="m197.6 92.2l-14.2-10.3h17.5z"/><path class="a" d="m193.9 87.1l5.4-16.7 5.4 16.7z"/><path class="a" d="m197.6 81.9h17.5l-14.2 10.3z"/><path class="a" d="m203.6 83.9l5.4 16.6-14.1-10.3z"/><path class="a" d="m271.7 90.2l-14.2 10.3 5.4-16.6z"/><path class="a" d="m265.6 92.2l-14.1-10.3h17.5z"/><path class="a" d="m261.9 87.1l5.4-16.7 5.4 16.7z"/><path class="a" d="m265.6 81.9h17.5l-14.1 10.3z"/><path class="a" d="m271.7 83.9l5.4 16.6-14.2-10.3z"/><path class="a" d="m-34.5 119.4l-14.2 10.3 5.4-16.7z"/><path class="a" d="m-40.5 121.4l-14.2-10.3h17.5z"/><path class="a" d="m-44.3 116.2l5.4-16.6 5.4 16.6z"/><path class="a" d="m-40.5 111.1h17.4l-14.1 10.3z"/><path class="a" d="m-34.5 113l5.4 16.7-14.2-10.3z"/><path class="a" d="m33.5 119.4l-14.1 10.3 5.4-16.7z"/><path class="a" d="m27.5 121.4l-14.2-10.3h17.5z"/><path class="a" d="m23.8 116.2l5.4-16.6 5.4 16.6z"/><path class="a" d="m27.5 111.1h17.5l-14.2 10.3z"/><path class="a" d="m33.5 113l5.4 16.7-14.1-10.3z"/><path class="a" d="m101.6 119.4l-14.2 10.3 5.4-16.7z"/><path class="a" d="m95.5 121.4l-14.1-10.3h17.5z"/><path class="a" d="m91.8 116.2l5.4-16.6 5.4 16.6z"/><path class="a" d="m95.5 111.1h17.5l-14.1 10.3z"/><path class="a" d="m101.6 113l5.4 16.7-14.2-10.3z"/><path class="a" d="m169.6 119.4l-14.1 10.3 5.4-16.7z"/><path class="a" d="m163.6 121.4l-14.2-10.3h17.5z"/><path class="a" d="m159.8 116.2l5.4-16.6 5.4 16.6z"/><path class="a" d="m163.6 111.1h17.5l-14.2 10.3z"/><path class="a" d="m169.6 113l5.4 16.7-14.1-10.3z"/><path class="a" d="m237.7 119.4l-14.2 10.3 5.4-16.7z"/><path class="a" d="m231.6 121.4l-14.1-10.3h17.4z"/><path class="a" d="m227.9 116.2l5.4-16.6 5.4 16.6z"/><path class="a" d="m231.6 111.1h17.5l-14.2 10.3z"/><path class="a" d="m237.7 113l5.4 16.7-14.2-10.3z"/><path class="a" d="m-68.5 148.6l-14.2 10.2 5.4-16.6z"/><path class="a" d="m-74.6 150.5l-14.1-10.3h17.5z"/><path class="a" d="m-78.3 145.4l5.4-16.6 5.4 16.6z"/><path class="a" d="m-74.6 140.2h17.5l-14.1 10.3z"/><path class="a" d="m-68.5 142.2l5.4 16.6-14.2-10.2z"/><path class="a" d="m-0.5 148.6l-14.1 10.2 5.4-16.6z"/><path class="a" d="m-6.5 150.5l-14.2-10.3h17.5z"/><path class="a" d="m-10.3 145.4l5.4-16.6 5.4 16.6z"/><path class="a" d="m-6.5 140.2h17.5l-14.2 10.3z"/><path class="a" d="m-0.5 142.2l5.4 16.6-14.1-10.2z"/><path class="a" d="m67.6 148.6l-14.2 10.2 5.4-16.6z"/><path class="a" d="m61.5 150.5l-14.1-10.3h17.4z"/><path class="a" d="m57.8 145.4l5.4-16.6 5.4 16.6z"/><path class="a" d="m61.5 140.2h17.5l-14.2 10.3z"/><path class="a" d="m67.6 142.2l5.4 16.6-14.2-10.2z"/><path class="a" d="m135.6 148.6l-14.2 10.2 5.4-16.6z"/><path class="a" d="m129.6 150.5l-14.2-10.3h17.5z"/><path class="a" d="m125.8 145.4l5.4-16.6 5.4 16.6z"/><path class="a" d="m129.6 140.2h17.4l-14.1 10.3z"/><path class="a" d="m135.6 142.2l5.4 16.6-14.2-10.2z"/><path class="a" d="m203.6 148.6l-14.1 10.2 5.4-16.6z"/><path class="a" d="m197.6 150.5l-14.2-10.3h17.5z"/><path class="a" d="m193.9 145.4l5.4-16.6 5.4 16.6z"/><path class="a" d="m197.6 140.2h17.5l-14.2 10.3z"/><path class="a" d="m203.6 142.2l5.4 16.6-14.1-10.2z"/><path class="a" d="m271.7 148.6l-14.2 10.2 5.4-16.6z"/><path class="a" d="m265.6 150.5l-14.1-10.3h17.5z"/><path class="a" d="m261.9 145.4l5.4-16.6 5.4 16.6z"/><path class="a" d="m265.6 140.2h17.5l-14.1 10.3z"/><path class="a" d="m271.7 142.2l5.4 16.6-14.2-10.2z"/><path class="a" d="m-34.5 177.7l-14.2 10.3 5.4-16.6z"/><path class="a" d="m-40.5 179.7l-14.2-10.3h17.5z"/><path class="a" d="m-44.3 174.5l5.4-16.6 5.4 16.6z"/><path class="a" d="m-40.5 169.4h17.4l-14.1 10.3z"/><path class="a" d="m-34.5 171.4l5.4 16.6-14.2-10.3z"/><path class="a" d="m33.5 177.7l-14.1 10.3 5.4-16.6z"/><path class="a" d="m27.5 179.7l-14.2-10.3h17.5z"/><path class="a" d="m23.8 174.5l5.4-16.6 5.4 16.6z"/><path class="a" d="m27.5 169.4h17.5l-14.2 10.3z"/><path class="a" d="m33.5 171.4l5.4 16.6-14.1-10.3z"/><path class="a" d="m101.6 177.7l-14.2 10.3 5.4-16.6z"/><path class="a" d="m95.5 179.7l-14.1-10.3h17.5z"/><path class="a" d="m91.8 174.5l5.4-16.6 5.4 16.6z"/><path class="a" d="m95.5 169.4h17.5l-14.1 10.3z"/><path class="a" d="m101.6 171.4l5.4 16.6-14.2-10.3z"/><path class="a" d="m169.6 177.7l-14.1 10.3 5.4-16.6z"/><path class="a" d="m163.6 179.7l-14.2-10.3h17.5z"/><path class="a" d="m159.8 174.5l5.4-16.6 5.4 16.6z"/><path class="a" d="m163.6 169.4h17.5l-14.2 10.3z"/><path class="a" d="m169.6 171.4l5.4 16.6-14.1-10.3z"/><path class="a" d="m237.7 177.7l-14.2 10.3 5.4-16.6z"/><path class="a" d="m231.6 179.7l-14.1-10.3h17.4z"/><path class="a" d="m227.9 174.5l5.4-16.6 5.4 16.6z"/><path class="a" d="m231.6 169.4h17.5l-14.2 10.3z"/><path class="a" d="m237.7 171.4l5.4 16.6-14.2-10.3z"/><path class="a" d="m-68.5 206.9l-14.2 10.3 5.4-16.7z"/><path class="a" d="m-74.6 208.8l-14.1-10.2h17.5z"/><path class="a" d="m-78.3 203.7l5.4-16.6 5.4 16.6z"/><path class="a" d="m-74.6 198.6h17.5l-14.1 10.2z"/><path class="a" d="m-68.5 200.5l5.4 16.7-14.2-10.3z"/><path class="a" d="m-0.5 206.9l-14.1 10.3 5.4-16.7z"/><path class="a" d="m-6.5 208.8l-14.2-10.2h17.5z"/><path class="a" d="m-10.3 203.7l5.4-16.6 5.4 16.6z"/><path class="a" d="m-6.5 198.6h17.5l-14.2 10.2z"/><path class="a" d="m-0.5 200.5l5.4 16.7-14.1-10.3z"/><path class="a" d="m67.6 206.9l-14.2 10.3 5.4-16.7z"/><path class="a" d="m61.5 208.8l-14.1-10.2h17.4z"/><path class="a" d="m57.8 203.7l5.4-16.6 5.4 16.6z"/><path class="a" d="m61.5 198.6h17.5l-14.2 10.2z"/><path class="a" d="m67.6 200.5l5.4 16.7-14.2-10.3z"/><path class="a" d="m135.6 206.9l-14.2 10.3 5.4-16.7z"/><path class="a" d="m129.6 208.8l-14.2-10.2h17.5z"/><path class="a" d="m125.8 203.7l5.4-16.6 5.4 16.6z"/><path class="a" d="m129.6 198.6h17.4l-14.1 10.2z"/><path class="a" d="m135.6 200.5l5.4 16.7-14.2-10.3z"/><path class="a" d="m203.6 206.9l-14.1 10.3 5.4-16.7z"/><path class="a" d="m197.6 208.8l-14.2-10.2h17.5z"/><path class="a" d="m193.9 203.7l5.4-16.6 5.4 16.6z"/><path class="a" d="m197.6 198.6h17.5l-14.2 10.2z"/><path class="a" d="m203.6 200.5l5.4 16.7-14.1-10.3z"/><path class="a" d="m271.7 206.9l-14.2 10.3 5.4-16.7z"/><path class="a" d="m265.6 208.8l-14.1-10.2h17.5z"/><path class="a" d="m261.9 203.7l5.4-16.6 5.4 16.6z"/><path class="a" d="m265.6 198.6h17.5l-14.1 10.2z"/><path class="a" d="m271.7 200.5l5.4 16.7-14.2-10.3z"/><path class="a" d="m-34.5 236l-14.2 10.3 5.4-16.6z"/><path class="a" d="m-40.5 238l-14.2-10.3h17.5z"/><path class="a" d="m-44.3 232.9l5.4-16.7 5.4 16.7z"/><path class="a" d="m-40.5 227.7h17.4l-14.1 10.3z"/><path class="a" d="m-34.5 229.7l5.4 16.6-14.2-10.3z"/><path class="a" d="m33.5 236l-14.1 10.3 5.4-16.6z"/><path class="a" d="m27.5 238l-14.2-10.3h17.5z"/><path class="a" d="m23.8 232.9l5.4-16.7 5.4 16.7z"/><path class="a" d="m27.5 227.7h17.5l-14.2 10.3z"/><path class="a" d="m33.5 229.7l5.4 16.6-14.1-10.3z"/><path class="a" d="m101.6 236l-14.2 10.3 5.4-16.6z"/><path class="a" d="m95.5 238l-14.1-10.3h17.5z"/><path class="a" d="m91.8 232.9l5.4-16.7 5.4 16.7z"/><path class="a" d="m95.5 227.7h17.5l-14.1 10.3z"/><path class="a" d="m101.6 229.7l5.4 16.6-14.2-10.3z"/><path class="a" d="m169.6 236l-14.1 10.3 5.4-16.6z"/><path class="a" d="m163.6 238l-14.2-10.3h17.5z"/><path class="a" d="m159.8 232.9l5.4-16.7 5.4 16.7z"/><path class="a" d="m163.6 227.7h17.5l-14.2 10.3z"/><path class="a" d="m169.6 229.7l5.4 16.6-14.1-10.3z"/><path class="a" d="m237.7 236l-14.2 10.3 5.4-16.6z"/><path class="a" d="m231.6 238l-14.1-10.3h17.4z"/><path class="a" d="m227.9 232.9l5.4-16.7 5.4 16.7z"/><path class="a" d="m231.6 227.7h17.5l-14.2 10.3z"/><path class="a" d="m237.7 229.7l5.4 16.6-14.2-10.3z"/><path class="a" d="m-68.5 265.2l-14.2 10.3 5.4-16.7z"/><path class="a" d="m-74.6 267.2l-14.1-10.3h17.5z"/><path class="a" d="m-78.3 262l5.4-16.6 5.4 16.6z"/><path class="a" d="m-74.6 256.9h17.5l-14.1 10.3z"/><path class="a" d="m-68.5 258.8l5.4 16.7-14.2-10.3z"/><path class="a" d="m-0.5 265.2l-14.1 10.3 5.4-16.7z"/><path class="a" d="m-6.5 267.2l-14.2-10.3h17.5z"/><path class="a" d="m-10.3 262l5.4-16.6 5.4 16.6z"/><path class="a" d="m-6.5 256.9h17.5l-14.2 10.3z"/><path class="a" d="m-0.5 258.8l5.4 16.7-14.1-10.3z"/><path class="a" d="m67.6 265.2l-14.2 10.3 5.4-16.7z"/><path class="a" d="m61.5 267.2l-14.1-10.3h17.4z"/><path class="a" d="m57.8 262l5.4-16.6 5.4 16.6z"/><path class="a" d="m61.5 256.9h17.5l-14.2 10.3z"/><path class="a" d="m67.6 258.8l5.4 16.7-14.2-10.3z"/><path class="a" d="m135.6 265.2l-14.2 10.3 5.4-16.7z"/><path class="a" d="m129.6 267.2l-14.2-10.3h17.5z"/><path class="a" d="m125.8 262l5.4-16.6 5.4 16.6z"/><path class="a" d="m129.6 256.9h17.4l-14.1 10.3z"/><path class="a" d="m135.6 258.8l5.4 16.7-14.2-10.3z"/><path class="a" d="m203.6 265.2l-14.1 10.3 5.4-16.7z"/><path class="a" d="m197.6 267.2l-14.2-10.3h17.5z"/><path class="a" d="m193.9 262l5.4-16.6 5.4 16.6z"/><path class="a" d="m197.6 256.9h17.5l-14.2 10.3z"/><path class="a" d="m203.6 258.8l5.4 16.7-14.1-10.3z"/><path class="a" d="m271.7 265.2l-14.2 10.3 5.4-16.7z"/><path class="a" d="m265.6 267.2l-14.1-10.3h17.5z"/><path class="a" d="m261.9 262l5.4-16.6 5.4 16.6z"/><path class="a" d="m265.6 256.9h17.5l-14.1 10.3z"/><path class="a" d="m271.7 258.8l5.4 16.7-14.2-10.3z"/></svg>